# xmcd
#
# Track frame offsets:
#	150
#	30676
#	58912
#	73942
#	95622
#	116709
#	138448
#	160697
#	179576
#	207026
#	231307
#	249493
#
# Disc length: 3668 seconds
#
# Revision: 1
# Processed by: cddbd v1.5.2PL0 Copyright (c) Steve Scherf et al.
# Submitted via: audiograbber 1.83.01
#
DISCID=b10e520c
DTITLE=Hemant Kumar - Nagin(Instrumental)
DYEAR=2007
DGENRE=Hindi
TTITLE0=Man Dole Mera Tan Dole
TTITLE1=Sun Rasiya Man Basiya
TTITLE2=Jadugar Saiyaan
TTITLE3=Oonchi Oonchi Duniya
TTITLE4=Chhod De Patang Meri
TTITLE5=Zindagi Ke Dene Wale
TTITLE6=Mera Dil Ye Pukare Aa Ja
TTITLE7=Teri Yaad Mein Jalkar
TTITLE8=Sun Ri Sakhi
TTITLE9=Mera Badli Mein
TTITLE10=Yaad Rakhna Pyar Ki Nishani
TTITLE11=Tere Dwar Khada Ek Jogi
EXTD=
EXTT0=
EXTT1=
EXTT2=
EXTT3=
EXTT4=
EXTT5=
EXTT6=
EXTT7=
EXTT8=
EXTT9=
EXTT10=
EXTT11=
PLAYORDER=
